<?xml version="1.0" encoding="utf-8"?>
<!-- Generator: Adobe Illustrator 17.0.0, SVG Export Plug-In . SVG Version: 6.00 Build 0)  -->
<!DOCTYPE svg PUBLIC "-//W3C//DTD SVG 1.1//EN" "http://www.w3.org/Graphics/SVG/1.1/DTD/svg11.dtd">
<svg version="1.1" id="Layer_3" xmlns="http://www.w3.org/2000/svg" xmlns:xlink="http://www.w3.org/1999/xlink" x="0px" y="0px"
	 width="320px" height="114px" viewBox="0 0 320 114" enable-background="new 0 0 320 114" xml:space="preserve">
<g>
	<g>
		<path fill="#474747" d="M186.721,112.082h-10.09V61.668h20.18c1.851,0,3.633,0.24,5.344,0.721c1.71,0.48,3.31,1.16,4.799,2.039
			c1.488,0.879,2.848,1.934,4.078,3.164s2.285,2.596,3.164,4.096s1.559,3.105,2.039,4.816c0.48,1.711,0.721,3.492,0.721,5.344
			c0,2.766-0.527,5.373-1.582,7.822c-1.055,2.449-2.496,4.588-4.324,6.416s-3.967,3.27-6.416,4.324
			c-2.449,1.055-5.057,1.582-7.822,1.582h-10.09V112.082z M186.721,71.758v20.18h10.09c1.383,0,2.684-0.264,3.902-0.791
			c1.218-0.527,2.285-1.248,3.199-2.162s1.635-1.986,2.162-3.217s0.791-2.537,0.791-3.92s-0.264-2.689-0.791-3.92
			s-1.248-2.303-2.162-3.217s-1.981-1.635-3.199-2.162c-1.219-0.527-2.52-0.791-3.902-0.791H186.721z"/>
		<path fill="#474747" d="M272.256,87.086c0,2.391-0.311,4.693-0.932,6.908c-0.621,2.215-1.494,4.289-2.619,6.223
			s-2.484,3.697-4.078,5.291c-1.594,1.594-3.352,2.959-5.273,4.096c-1.922,1.137-3.996,2.016-6.223,2.637
			c-2.227,0.621-4.535,0.932-6.926,0.932s-4.693-0.311-6.908-0.932s-4.289-1.5-6.223-2.637s-3.697-2.502-5.291-4.096
			c-1.594-1.594-2.959-3.357-4.096-5.291c-1.137-1.934-2.016-4.008-2.637-6.223c-0.621-2.215-0.932-4.518-0.932-6.908
			s0.311-4.699,0.932-6.926c0.621-2.227,1.5-4.301,2.637-6.223c1.137-1.922,2.501-3.68,4.096-5.273
			c1.594-1.594,3.357-2.953,5.291-4.078c1.934-1.125,4.008-1.998,6.223-2.619s4.518-0.932,6.908-0.932s4.699,0.311,6.926,0.932
			c2.227,0.621,4.301,1.494,6.223,2.619c1.921,1.125,3.679,2.484,5.273,4.078c1.594,1.594,2.953,3.352,4.078,5.273
			s1.998,3.996,2.619,6.223C271.945,82.387,272.256,84.695,272.256,87.086z M262.236,87.086c0-2.203-0.422-4.283-1.266-6.24
			s-1.986-3.656-3.428-5.098s-3.141-2.584-5.098-3.428c-1.957-0.844-4.038-1.266-6.24-1.266c-2.227,0-4.313,0.422-6.258,1.266
			c-1.946,0.844-3.645,1.986-5.098,3.428c-1.454,1.441-2.602,3.141-3.445,5.098s-1.266,4.037-1.266,6.24s0.422,4.271,1.266,6.205
			s1.992,3.627,3.445,5.08c1.453,1.453,3.152,2.602,5.098,3.445c1.945,0.844,4.031,1.266,6.258,1.266
			c2.203,0,4.283-0.422,6.24-1.266c1.957-0.844,3.656-1.992,5.098-3.445s2.584-3.146,3.428-5.08S262.236,89.289,262.236,87.086z"/>
		<path fill="#474747" d="M288.955,112.082h-10.09V61.668h20.18c1.851,0,3.633,0.24,5.344,0.721c1.71,0.48,3.31,1.16,4.799,2.039
			c1.488,0.879,2.848,1.934,4.078,3.164s2.285,2.596,3.164,4.096s1.559,3.105,2.039,4.816c0.48,1.711,0.721,3.492,0.721,5.344
			c0,2.766-0.527,5.373-1.582,7.822s-2.496,4.588-4.324,6.416s-3.967,3.27-6.416,4.324c-2.449,1.055-5.057,1.582-7.822,1.582h-10.09
			V112.082z M288.955,71.758v20.18h10.09c1.383,0,2.684-0.264,3.902-0.791c1.218-0.527,2.285-1.248,3.199-2.162
			s1.635-1.986,2.162-3.217s0.791-2.537,0.791-3.92s-0.264-2.689-0.791-3.92s-1.248-2.303-2.162-3.217s-1.981-1.635-3.199-2.162
			c-1.219-0.527-2.52-0.791-3.902-0.791H288.955z"/>
	</g>
	<g>
		<g>
			<path fill="#52CC52" d="M168.811,102.103c0,5.523-4.477,10-10,10h-31c-5.523,0-10-4.477-10-10v-30c0-5.523,4.477-10,10-10h31
				c5.523,0,10,4.477,10,10V102.103z"/>
		</g>
		<g>
			<path fill="#FFAB66" d="M109.811,102.103c0,5.523-4.477,10-10,10h-31c-5.523,0-10-4.477-10-10v-30c0-5.523,4.477-10,10-10h31
				c5.523,0,10,4.477,10,10V102.103z"/>
		</g>
		<g>
			<path fill="#3D9999" d="M51.811,102.103c0,5.5-4.5,10-10,10h-31c-5.5,0-10-4.5-10-10v-30c0-5.5,4.5-10,10-10h31
				c5.5,0,10,4.5,10,10V102.103z"/>
		</g>
	</g>
</g>
<g>
	<g>
		<path fill="#474747" d="M54.228,46.778c-2.344,2.016-4.969,3.563-7.875,4.641c-2.906,1.078-5.918,1.617-9.035,1.617
			c-2.391,0-4.693-0.311-6.908-0.932s-4.289-1.5-6.223-2.637c-1.934-1.137-3.697-2.501-5.291-4.096
			c-1.594-1.594-2.959-3.357-4.096-5.291c-1.137-1.934-2.016-4.008-2.637-6.223c-0.621-2.215-0.932-4.518-0.932-6.908
			s0.311-4.699,0.932-6.926c0.621-2.227,1.5-4.307,2.637-6.24c1.137-1.934,2.501-3.697,4.096-5.291
			c1.594-1.594,3.357-2.958,5.291-4.096c1.934-1.137,4.008-2.016,6.223-2.637c2.215-0.621,4.518-0.932,6.908-0.932
			c3.117,0,6.129,0.533,9.035,1.6c2.906,1.067,5.531,2.619,7.875,4.658l-5.344,8.789c-1.477-1.594-3.223-2.818-5.238-3.674
			c-2.016-0.855-4.125-1.283-6.328-1.283c-2.227,0-4.313,0.422-6.258,1.266c-1.946,0.844-3.645,1.986-5.098,3.428
			c-1.454,1.441-2.602,3.141-3.445,5.098c-0.844,1.957-1.266,4.038-1.266,6.24c0,2.203,0.422,4.271,1.266,6.205
			s1.992,3.627,3.445,5.08c1.453,1.454,3.152,2.602,5.098,3.445c1.945,0.844,4.031,1.266,6.258,1.266
			c2.203,0,4.312-0.427,6.328-1.283c2.016-0.855,3.762-2.08,5.238-3.674L54.228,46.778z"/>
		<path fill="#474747" d="M108.017,26.949c0,2.391-0.311,4.693-0.932,6.908c-0.621,2.215-1.494,4.289-2.619,6.223
			s-2.484,3.697-4.078,5.291c-1.594,1.594-3.352,2.959-5.273,4.096c-1.922,1.137-3.996,2.016-6.223,2.637
			c-2.227,0.621-4.535,0.932-6.926,0.932s-4.693-0.311-6.908-0.932s-4.289-1.5-6.223-2.637c-1.934-1.137-3.697-2.501-5.291-4.096
			c-1.594-1.594-2.959-3.357-4.096-5.291c-1.137-1.934-2.016-4.008-2.637-6.223c-0.621-2.215-0.932-4.518-0.932-6.908
			s0.311-4.699,0.932-6.926c0.621-2.227,1.5-4.301,2.637-6.223c1.137-1.921,2.501-3.679,4.096-5.273
			c1.594-1.594,3.357-2.953,5.291-4.078s4.008-1.998,6.223-2.619c2.215-0.621,4.518-0.932,6.908-0.932s4.699,0.311,6.926,0.932
			c2.227,0.621,4.301,1.494,6.223,2.619c1.921,1.125,3.679,2.484,5.273,4.078c1.594,1.594,2.953,3.352,4.078,5.273
			c1.125,1.922,1.998,3.996,2.619,6.223C107.706,22.251,108.017,24.559,108.017,26.949z M97.998,26.949
			c0-2.203-0.422-4.283-1.266-6.24c-0.844-1.957-1.986-3.656-3.428-5.098s-3.141-2.584-5.098-3.428
			c-1.957-0.844-4.038-1.266-6.24-1.266c-2.227,0-4.313,0.422-6.258,1.266c-1.946,0.844-3.645,1.986-5.098,3.428
			c-1.454,1.441-2.602,3.141-3.445,5.098c-0.844,1.957-1.266,4.038-1.266,6.24c0,2.203,0.422,4.271,1.266,6.205
			s1.992,3.627,3.445,5.08c1.453,1.454,3.152,2.602,5.098,3.445c1.945,0.844,4.031,1.266,6.258,1.266
			c2.203,0,4.283-0.422,6.24-1.266c1.957-0.844,3.656-1.992,5.098-3.445c1.441-1.453,2.584-3.146,3.428-5.08
			S97.998,29.153,97.998,26.949z"/>
		<path fill="#474747" d="M149.924,51.945h-35.297V1.531h10.09v40.324h25.207V51.945z"/>
		<path fill="#474747" d="M202.834,26.949c0,2.391-0.311,4.693-0.932,6.908c-0.621,2.215-1.494,4.289-2.619,6.223
			s-2.484,3.697-4.078,5.291c-1.594,1.594-3.352,2.959-5.273,4.096c-1.922,1.137-3.996,2.016-6.223,2.637
			c-2.227,0.621-4.535,0.932-6.926,0.932s-4.693-0.311-6.908-0.932s-4.289-1.5-6.223-2.637c-1.934-1.137-3.697-2.501-5.291-4.096
			c-1.594-1.594-2.959-3.357-4.096-5.291c-1.137-1.934-2.016-4.008-2.637-6.223c-0.621-2.215-0.932-4.518-0.932-6.908
			s0.311-4.699,0.932-6.926c0.621-2.227,1.5-4.301,2.637-6.223c1.137-1.921,2.501-3.679,4.096-5.273
			c1.594-1.594,3.357-2.953,5.291-4.078s4.008-1.998,6.223-2.619c2.215-0.621,4.518-0.932,6.908-0.932s4.699,0.311,6.926,0.932
			c2.227,0.621,4.301,1.494,6.223,2.619c1.921,1.125,3.679,2.484,5.273,4.078c1.594,1.594,2.953,3.352,4.078,5.273
			c1.125,1.922,1.998,3.996,2.619,6.223C202.523,22.251,202.834,24.559,202.834,26.949z M192.814,26.949
			c0-2.203-0.422-4.283-1.266-6.24c-0.844-1.957-1.986-3.656-3.428-5.098s-3.141-2.584-5.098-3.428
			c-1.957-0.844-4.038-1.266-6.24-1.266c-2.227,0-4.313,0.422-6.258,1.266c-1.946,0.844-3.645,1.986-5.098,3.428
			c-1.454,1.441-2.602,3.141-3.445,5.098c-0.844,1.957-1.266,4.038-1.266,6.24c0,2.203,0.422,4.271,1.266,6.205
			s1.992,3.627,3.445,5.08c1.453,1.454,3.152,2.602,5.098,3.445c1.945,0.844,4.031,1.266,6.258,1.266
			c2.203,0,4.283-0.422,6.24-1.266c1.957-0.844,3.656-1.992,5.098-3.445c1.441-1.453,2.584-3.146,3.428-5.08
			S192.814,29.153,192.814,26.949z"/>
		<path fill="#474747" d="M219.533,51.945h-10.09V1.531h20.18c1.851,0,3.633,0.241,5.344,0.721c1.71,0.48,3.31,1.16,4.799,2.039
			c1.488,0.879,2.848,1.934,4.078,3.164s2.285,2.596,3.164,4.096c0.879,1.5,1.559,3.106,2.039,4.816
			c0.48,1.711,0.721,3.493,0.721,5.344c0,1.735-0.217,3.422-0.65,5.063c-0.434,1.641-1.055,3.199-1.863,4.676
			s-1.799,2.836-2.971,4.078c-1.172,1.243-2.484,2.32-3.938,3.234l5.59,13.184h-10.723l-4.395-10.16l-11.285,0.07V51.945z
			 M219.533,11.621v20.18h10.09c1.383,0,2.684-0.264,3.902-0.791c1.218-0.527,2.285-1.248,3.199-2.162s1.635-1.986,2.162-3.217
			s0.791-2.537,0.791-3.92c0-1.383-0.264-2.689-0.791-3.92s-1.248-2.303-2.162-3.217s-1.981-1.635-3.199-2.162
			c-1.219-0.527-2.52-0.791-3.902-0.791H219.533z"/>
	</g>
	<g>
		<path fill="#FF6666" d="M308.811,42.103c0,5.523-4.477,10-10,10h-31c-5.523,0-10-4.477-10-10v-30c0-5.523,4.477-10,10-10h31
			c5.523,0,10,4.477,10,10V42.103z"/>
	</g>
</g>
</svg>
